<svg width="36" height="36" viewBox="0 0 36 36" fill="none" xmlns="http://www.w3.org/2000/svg">
<path d="M17.9571 32.768C12.51 32.768 6 30.1159 6 17.5299C6 4.13485 17.8686 4 17.9571 4C28.6743 4 30.8 13.6643 30.8 13.7542L28.1871 14.2935L29.4714 14.0238L28.1871 14.3385C28.1429 14.0238 26.5043 6.697 17.9571 6.697C17.6029 6.697 8.65714 6.8768 8.65714 17.5299C8.65714 30.071 15.6543 30.071 17.9571 30.071C21.4557 30.071 26.3714 28.0482 26.3714 23.5982C26.3714 21.8451 25.7514 20.5865 24.4229 19.8673C23.67 24.2275 20.7471 25.8457 17.9571 25.8457C14.8571 25.8457 12.7314 23.2386 12.7314 20.8113C12.7314 18.6987 14.3257 16.1814 18.8429 16.1814C19.5514 16.1814 20.6586 16.1814 21.8543 16.3612C21.7214 15.4622 21.3671 14.788 20.88 14.3834C19.8171 13.4844 18.2229 13.7092 18.1786 13.7092C18.09 13.7092 18.0457 13.7092 17.9571 13.7092C17.9129 13.7092 16.6729 13.7541 15.3443 15.0577L13.4843 13.1248C15.3886 11.2369 17.3371 11.0571 17.8243 11.0122C18.3557 10.9672 20.7471 10.7425 22.5629 12.3157C23.8029 13.3945 24.4671 14.9678 24.5557 17.0355C26.9029 17.9345 28.9843 19.7774 28.9843 23.6431C29.0729 29.5316 23.36 32.768 17.9571 32.768ZM18.8429 18.8784C16.6729 18.8784 15.3886 19.5977 15.3886 20.8113C15.3886 21.8901 16.4514 23.1487 17.9571 23.1487C19.5514 23.1487 21.4114 22.3845 21.8543 19.1032C21.0129 18.9234 19.9943 18.8784 18.8429 18.8784Z" fill="white"/>
</svg>
